{
    "asset" : {
        "generator" : "Khronos glTF Blender I/O v1.7.33",
        "version" : "2.0"
    },
    "scene" : 0,
    "scenes" : [
        {
            "name" : "Scene",
            "nodes" : [
                0
            ]
        }
    ],
    "nodes" : [
        {
            "mesh" : 0,
            "name" : "Cube"
        }
    ],
    "meshes" : [
        {
            "name" : "Cube.002",
            "primitives" : [
                {
                    "attributes" : {
                        "POSITION" : 0,
                        "NORMAL" : 1,
                        "TEXCOORD_0" : 2
                    },
                    "indices" : 3
                }
            ]
        }
    ],
    "accessors" : [
        {
            "bufferView" : 0,
            "componentType" : 5126,
            "count" : 106,
            "max" : [
                1.4382696151733398,
                0.7958750128746033,
                1.429396390914917
            ],
            "min" : [
                -1.260143518447876,
                0.1383633017539978,
                -1.324047327041626
            ],
            "type" : "VEC3"
        },
        {
            "bufferView" : 1,
            "componentType" : 5126,
            "count" : 106,
            "type" : "VEC3"
        },
        {
            "bufferView" : 2,
            "componentType" : 5126,
            "count" : 106,
            "type" : "VEC2"
        },
        {
            "bufferView" : 3,
            "componentType" : 5123,
            "count" : 216,
            "type" : "SCALAR"
        }
    ],
    "bufferViews" : [
        {
            "buffer" : 0,
            "byteLength" : 1272,
            "byteOffset" : 0
        },
        {
            "buffer" : 0,
            "byteLength" : 1272,
            "byteOffset" : 1272
        },
        {
            "buffer" : 0,
            "byteLength" : 848,
            "byteOffset" : 2544
        },
        {
            "buffer" : 0,
            "byteLength" : 432,
            "byteOffset" : 3392
        }
    ],
    "buffers" : [
        {
            "byteLength" : 3824,
            "uri" : "scene.bin"
        }
    ]
}
